<svg xmlns="http://www.w3.org/2000/svg" xmlns:xlink="http://www.w3.org/1999/xlink" width="500" zoomAndPan="magnify" viewBox="0 0 375 374.999991" height="500" preserveAspectRatio="xMidYMid meet" version="1.0"><defs><g/><clipPath id="94194df0b7"><path d="M 112.5 145 L 128 145 L 128 161 L 112.5 161 Z M 112.5 145 " clip-rule="nonzero"/></clipPath></defs><rect x="-37.5" width="450" fill="#ffffff" y="-37.499999" height="449.999989" fill-opacity="1"/><rect x="-37.5" width="450" fill="#ffffff" y="-37.499999" height="449.999989" fill-opacity="1"/><g fill="#000000" fill-opacity="1"><g transform="translate(118.816403, 259.930646)"><g><path d="M 14.3125 0.5 C 21.609375 0.5 27.453125 -5.28125 27.453125 -12.640625 C 27.453125 -20.046875 21.609375 -25.796875 14.3125 -25.796875 C 7.015625 -25.796875 1.1875 -20.046875 1.1875 -12.640625 C 1.1875 -5.28125 7.015625 0.5 14.3125 0.5 Z M 14.3125 -4.375 C 9.71875 -4.375 6.140625 -7.796875 6.140625 -12.640625 C 6.140625 -17.515625 9.71875 -20.953125 14.3125 -20.953125 C 18.890625 -20.953125 22.46875 -17.515625 22.46875 -12.640625 C 22.46875 -7.796875 18.890625 -4.375 14.3125 -4.375 Z M 14.3125 -4.375 "/></g></g></g><g fill="#000000" fill-opacity="1"><g transform="translate(147.421217, 259.930646)"><g><path d="M 8.59375 0 L 14.78125 0 L 23.296875 -25.28125 L 17.84375 -25.28125 L 11.703125 -5.859375 L 5.53125 -25.28125 L 0.109375 -25.28125 Z M 8.59375 0 "/></g></g></g><g fill="#000000" fill-opacity="1"><g transform="translate(170.789044, 259.930646)"><g><path d="M 18.609375 0 L 24.015625 0 L 15.140625 -25.28125 L 8.953125 -25.28125 L 0.109375 0 L 5.484375 0 L 7.015625 -4.546875 L 17.09375 -4.546875 Z M 8.59375 -9.21875 L 12.0625 -19.546875 L 15.53125 -9.21875 Z M 8.59375 -9.21875 "/></g></g></g><g fill="#000000" fill-opacity="1"><g transform="translate(194.915328, 259.930646)"><g><path d="M 19.078125 -25.28125 L 0.46875 -25.28125 L 0.46875 -20.515625 L 7.265625 -20.515625 L 7.265625 0 L 12.25 0 L 12.25 -20.515625 L 19.078125 -20.515625 Z M 19.078125 -25.28125 "/></g></g></g><g fill="#000000" fill-opacity="1"><g transform="translate(214.418611, 259.930646)"><g><path d="M 2.34375 -25.28125 L 2.34375 0 L 7.328125 0 L 7.328125 -25.28125 Z M 2.34375 -25.28125 "/></g></g></g><g fill="#000000" fill-opacity="1"><g transform="translate(224.098023, 259.930646)"><g><path d="M 14.34375 0.5 C 19 0.5 23.078125 -1.84375 25.21875 -5.453125 L 20.921875 -7.953125 C 19.71875 -5.75 17.234375 -4.375 14.34375 -4.375 C 9.390625 -4.375 6.140625 -7.796875 6.140625 -12.640625 C 6.140625 -17.515625 9.390625 -20.953125 14.34375 -20.953125 C 17.234375 -20.953125 19.6875 -19.578125 20.921875 -17.34375 L 25.21875 -19.828125 C 23.046875 -23.4375 18.96875 -25.796875 14.34375 -25.796875 C 6.6875 -25.796875 1.1875 -20.046875 1.1875 -12.640625 C 1.1875 -5.28125 6.6875 0.5 14.34375 0.5 Z M 14.34375 0.5 "/></g></g></g><g fill="#000000" fill-opacity="1"><g transform="translate(250.319102, 259.930646)"><g><path d="M 10.984375 0.5 C 16.359375 0.5 20.15625 -2.390625 20.15625 -7.109375 C 20.15625 -12.28125 15.890625 -13.625 11.890625 -14.890625 C 8.0625 -16.046875 7.078125 -16.875 7.078125 -18.421875 C 7.078125 -19.875 8.3125 -20.953125 10.40625 -20.953125 C 12.96875 -20.953125 14.34375 -19.609375 15.25 -17.703125 L 19.4375 -20.125 C 17.734375 -23.65625 14.5625 -25.796875 10.40625 -25.796875 C 6.0625 -25.796875 2.09375 -23.046875 2.09375 -18.28125 C 2.09375 -13.46875 5.859375 -11.84375 9.71875 -10.734375 C 13.46875 -9.640625 15.171875 -8.921875 15.171875 -7.046875 C 15.171875 -5.640625 14.125 -4.375 11.125 -4.375 C 7.984375 -4.375 6.21875 -5.890625 5.3125 -8.234375 L 1.046875 -5.75 C 2.421875 -1.984375 5.8125 0.5 10.984375 0.5 Z M 10.984375 0.5 "/></g></g></g><g fill="#000000" fill-opacity="1"><g transform="translate(126.036617, 273.170958)"><g><path d="M 1.5 -0.65625 L 1.5 -3.203125 L 4.59375 -3.203125 L 4.59375 -3.859375 L 1.5 -3.859375 L 1.5 -6.34375 L 4.84375 -6.34375 L 4.84375 -7 L 0.796875 -7 L 0.796875 0 L 4.90625 0 L 4.90625 -0.65625 Z M 1.5 -0.65625 "/></g></g></g><g fill="#000000" fill-opacity="1"><g transform="translate(131.96452, 273.170958)"><g><path d="M 7.203125 -7 L 6.328125 -7 L 4 -3.09375 L 1.671875 -7 L 0.796875 -7 L 0.796875 0 L 1.5 0 L 1.5 -5.9375 L 3.953125 -1.84375 L 4.046875 -1.84375 L 6.5 -5.9375 L 6.5 0 L 7.203125 0 Z M 7.203125 -7 "/></g></g></g><g fill="#000000" fill-opacity="1"><g transform="translate(140.591363, 273.170958)"><g><path d="M 3.296875 -7 L 0.796875 -7 L 0.796875 0 L 1.5 0 L 1.5 -2.59375 L 3.296875 -2.59375 C 4.5625 -2.59375 5.5 -3.546875 5.5 -4.796875 C 5.5 -6.0625 4.5625 -7 3.296875 -7 Z M 3.296875 -3.265625 L 1.5 -3.265625 L 1.5 -6.34375 L 3.296875 -6.34375 C 4.171875 -6.34375 4.796875 -5.703125 4.796875 -4.796875 C 4.796875 -3.90625 4.171875 -3.265625 3.296875 -3.265625 Z M 3.296875 -3.265625 "/></g></g></g><g fill="#000000" fill-opacity="1"><g transform="translate(147.11904, 273.170958)"><g><path d="M 4.015625 0.125 C 6.0625 0.125 7.640625 -1.5 7.640625 -3.5 C 7.640625 -5.5 6.0625 -7.125 4.015625 -7.125 C 1.984375 -7.125 0.40625 -5.5 0.40625 -3.5 C 0.40625 -1.5 1.984375 0.125 4.015625 0.125 Z M 4.015625 -0.5625 C 2.359375 -0.5625 1.09375 -1.875 1.09375 -3.5 C 1.09375 -5.125 2.359375 -6.4375 4.015625 -6.4375 C 5.6875 -6.4375 6.9375 -5.125 6.9375 -3.5 C 6.9375 -1.875 5.6875 -0.5625 4.015625 -0.5625 Z M 4.015625 -0.5625 "/></g></g></g><g fill="#000000" fill-opacity="1"><g transform="translate(155.785869, 273.170958)"><g><path d="M 2.328125 0 L 3.171875 0 L 5 -6.078125 L 6.828125 0 L 7.671875 0 L 9.703125 -7 L 8.953125 -7 L 7.234375 -0.953125 L 5.40625 -7 L 4.59375 -7 L 2.765625 -0.953125 L 1.046875 -7 L 0.296875 -7 Z M 2.328125 0 "/></g></g></g><g fill="#000000" fill-opacity="1"><g transform="translate(166.411925, 273.170958)"><g><path d="M 1.5 -0.65625 L 1.5 -3.203125 L 4.59375 -3.203125 L 4.59375 -3.859375 L 1.5 -3.859375 L 1.5 -6.34375 L 4.84375 -6.34375 L 4.84375 -7 L 0.796875 -7 L 0.796875 0 L 4.90625 0 L 4.90625 -0.65625 Z M 1.5 -0.65625 "/></g></g></g><g fill="#000000" fill-opacity="1"><g transform="translate(172.339827, 273.170958)"><g><path d="M 5.09375 0 L 5.90625 0 L 4.1875 -2.890625 C 5.0625 -3.140625 5.703125 -3.953125 5.703125 -4.90625 C 5.703125 -6.0625 4.765625 -7 3.59375 -7 L 0.796875 -7 L 0.796875 0 L 1.5 0 L 1.5 -2.796875 L 3.453125 -2.796875 Z M 1.5 -6.34375 L 3.59375 -6.34375 C 4.375 -6.34375 5 -5.703125 5 -4.90625 C 5 -4.109375 4.375 -3.453125 3.59375 -3.453125 L 1.5 -3.453125 Z M 1.5 -6.34375 "/></g></g></g><g fill="#000000" fill-opacity="1"><g transform="translate(179.067419, 273.170958)"><g><path d="M 0.796875 -7 L 0.796875 0 L 1.5 0 L 1.5 -7 Z M 0.796875 -7 "/></g></g></g><g fill="#000000" fill-opacity="1"><g transform="translate(181.996511, 273.170958)"><g><path d="M 5.296875 -7 L 5.296875 -1.296875 L 1.40625 -7 L 0.796875 -7 L 0.796875 0 L 1.5 0 L 1.5 -5.703125 L 5.40625 0 L 6 0 L 6 -7 Z M 5.296875 -7 "/></g></g></g><g fill="#000000" fill-opacity="1"><g transform="translate(189.423829, 273.170958)"><g><path d="M 7.484375 -3.328125 L 3.984375 -3.328125 L 3.984375 -2.671875 L 6.765625 -2.671875 C 6.640625 -1.5 5.703125 -0.5625 4.0625 -0.5625 C 2.296875 -0.5625 1.09375 -1.875 1.09375 -3.5 C 1.09375 -5.125 2.296875 -6.4375 4.0625 -6.4375 C 5.125 -6.4375 6.046875 -5.875 6.484375 -5.046875 L 7.09375 -5.40625 C 6.515625 -6.4375 5.375 -7.125 4.0625 -7.125 C 1.921875 -7.125 0.40625 -5.5 0.40625 -3.5 C 0.40625 -1.5 1.921875 0.125 4.0625 0.125 C 6.21875 0.125 7.484375 -1.296875 7.484375 -2.96875 Z M 7.484375 -3.328125 "/></g></g></g><g fill="#000000" fill-opacity="1"><g transform="translate(197.940716, 273.170958)"><g/></g></g><g fill="#000000" fill-opacity="1"><g transform="translate(201.069725, 273.170958)"><g><path d="M 0.796875 -7 L 0.796875 0 L 1.5 0 L 1.5 -7 Z M 0.796875 -7 "/></g></g></g><g fill="#000000" fill-opacity="1"><g transform="translate(203.998817, 273.170958)"><g><path d="M 5.296875 -7 L 5.296875 -1.296875 L 1.40625 -7 L 0.796875 -7 L 0.796875 0 L 1.5 0 L 1.5 -5.703125 L 5.40625 0 L 6 0 L 6 -7 Z M 5.296875 -7 "/></g></g></g><g fill="#000000" fill-opacity="1"><g transform="translate(211.426135, 273.170958)"><g><path d="M 5.296875 -7 L 5.296875 -1.296875 L 1.40625 -7 L 0.796875 -7 L 0.796875 0 L 1.5 0 L 1.5 -5.703125 L 5.40625 0 L 6 0 L 6 -7 Z M 5.296875 -7 "/></g></g></g><g fill="#000000" fill-opacity="1"><g transform="translate(218.853453, 273.170958)"><g><path d="M 4.015625 0.125 C 6.0625 0.125 7.640625 -1.5 7.640625 -3.5 C 7.640625 -5.5 6.0625 -7.125 4.015625 -7.125 C 1.984375 -7.125 0.40625 -5.5 0.40625 -3.5 C 0.40625 -1.5 1.984375 0.125 4.015625 0.125 Z M 4.015625 -0.5625 C 2.359375 -0.5625 1.09375 -1.875 1.09375 -3.5 C 1.09375 -5.125 2.359375 -6.4375 4.015625 -6.4375 C 5.6875 -6.4375 6.9375 -5.125 6.9375 -3.5 C 6.9375 -1.875 5.6875 -0.5625 4.015625 -0.5625 Z M 4.015625 -0.5625 "/></g></g></g><g fill="#000000" fill-opacity="1"><g transform="translate(227.520287, 273.170958)"><g><path d="M 2.6875 0 L 3.40625 0 L 5.984375 -7 L 5.21875 -7 L 3.046875 -0.9375 L 0.859375 -7 L 0.09375 -7 Z M 2.6875 0 "/></g></g></g><g fill="#000000" fill-opacity="1"><g transform="translate(234.227886, 273.170958)"><g><path d="M 5.453125 0 L 6.203125 0 L 3.515625 -7 L 2.796875 -7 L 0.09375 0 L 0.84375 0 L 1.484375 -1.71875 L 4.8125 -1.71875 Z M 1.734375 -2.375 L 3.15625 -6.125 L 4.5625 -2.375 Z M 1.734375 -2.375 "/></g></g></g><g fill="#000000" fill-opacity="1"><g transform="translate(241.155395, 273.170958)"><g><path d="M 5.203125 -7 L 0.203125 -7 L 0.203125 -6.34375 L 2.34375 -6.34375 L 2.34375 0 L 3.046875 0 L 3.046875 -6.34375 L 5.203125 -6.34375 Z M 5.203125 -7 "/></g></g></g><g fill="#000000" fill-opacity="1"><g transform="translate(247.183261, 273.170958)"><g><path d="M 0.796875 -7 L 0.796875 0 L 1.5 0 L 1.5 -7 Z M 0.796875 -7 "/></g></g></g><g fill="#000000" fill-opacity="1"><g transform="translate(250.112353, 273.170958)"><g><path d="M 4.015625 0.125 C 6.0625 0.125 7.640625 -1.5 7.640625 -3.5 C 7.640625 -5.5 6.0625 -7.125 4.015625 -7.125 C 1.984375 -7.125 0.40625 -5.5 0.40625 -3.5 C 0.40625 -1.5 1.984375 0.125 4.015625 0.125 Z M 4.015625 -0.5625 C 2.359375 -0.5625 1.09375 -1.875 1.09375 -3.5 C 1.09375 -5.125 2.359375 -6.4375 4.015625 -6.4375 C 5.6875 -6.4375 6.9375 -5.125 6.9375 -3.5 C 6.9375 -1.875 5.6875 -0.5625 4.015625 -0.5625 Z M 4.015625 -0.5625 "/></g></g></g><g fill="#000000" fill-opacity="1"><g transform="translate(258.779181, 273.170958)"><g><path d="M 5.296875 -7 L 5.296875 -1.296875 L 1.40625 -7 L 0.796875 -7 L 0.796875 0 L 1.5 0 L 1.5 -5.703125 L 5.40625 0 L 6 0 L 6 -7 Z M 5.296875 -7 "/></g></g></g><path fill="#000000" d="M 256.792969 132.515625 C 251.625 119.539062 241.617188 108.609375 229.265625 102.105469 C 217.59375 95.992188 203.789062 93.792969 190.871094 96.4375 C 185.050781 97.296875 179.347656 99.347656 174.183594 102.167969 C 164.382812 107.066406 156.246094 115.054688 150.605469 124.40625 C 150.308594 125.003906 149.980469 125.597656 149.683594 126.160156 C 152.800781 126.191406 155.949219 126.160156 159.066406 126.191406 C 159.097656 133.464844 159.066406 140.710938 159.066406 147.984375 C 151.761719 148.015625 144.425781 147.984375 137.09375 148.015625 C 137.0625 155.46875 137.09375 162.921875 137.09375 170.375 C 144.425781 170.375 151.734375 170.375 159.066406 170.375 C 159.066406 177.414062 159.039062 184.449219 159.097656 191.519531 L 169.875 191.519531 L 169.875 204.941406 C 174.242188 207.464844 178.753906 209.929688 183.65625 211.175781 C 193.542969 214.5625 204.410156 214.917969 214.597656 212.660156 C 220.503906 211.414062 226.148438 209.15625 231.402344 206.15625 C 244.5 198.554688 254.59375 185.90625 258.753906 171.296875 C 262.40625 158.675781 261.75 144.75 256.792969 132.515625 Z M 168.511719 116.65625 L 181.695312 116.65625 L 181.695312 129.84375 L 168.511719 129.84375 Z M 222.941406 171.175781 C 218.785156 176.640625 212.398438 180.324219 205.597656 181.332031 C 202.957031 181.6875 200.285156 181.6875 197.640625 181.304688 C 191.34375 180.351562 185.4375 177.058594 181.308594 172.1875 C 180.566406 171.535156 180.179688 170.199219 178.992188 170.226562 C 172.429688 170.136719 165.867188 170.226562 159.304688 170.199219 C 159.246094 162.863281 159.246094 155.527344 159.304688 148.164062 C 164.738281 148.164062 170.144531 148.195312 175.578125 148.164062 C 176.46875 145.136719 177.714844 142.195312 179.4375 139.550781 C 183.359375 133.96875 189.328125 129.8125 196.039062 128.417969 C 202.925781 126.84375 210.378906 128.296875 216.257812 132.160156 C 222.554688 136.167969 226.980469 142.9375 228.195312 150.300781 C 229.53125 157.605469 227.484375 165.355469 222.941406 171.175781 Z M 222.941406 171.175781 " fill-opacity="1" fill-rule="nonzero"/><path fill="#000000" d="M 130.292969 176.910156 L 146.566406 176.910156 L 146.566406 193.179688 L 130.292969 193.179688 Z M 130.292969 176.910156 " fill-opacity="1" fill-rule="nonzero"/><g clip-path="url(#94194df0b7)"><path fill="#000000" d="M 112.59375 145.816406 L 127.265625 145.816406 L 127.265625 160.488281 L 112.59375 160.488281 Z M 112.59375 145.816406 " fill-opacity="1" fill-rule="nonzero"/></g><path fill="#000000" d="M 125.125 121.972656 L 143.953125 121.972656 L 143.953125 140.800781 L 125.125 140.800781 Z M 125.125 121.972656 " fill-opacity="1" fill-rule="nonzero"/></svg>